<svg xmlns="http://www.w3.org/2000/svg" version="1.0" viewBox="985.28 2390.06 2126.47 826.69"><path fill="currentColor" d="M2398.6 2391.9c-1.7 1.1-3.8 3.5-4.8 5.3-3 5.7-2.3 10.3 4.1 26.4 14.8 37.8 16.4 48.6 15.9 109.6-.3 40.3 0 44.2 4.4 57.8 1.6 5 7.9 19.4 10.5 24.1.2.3-8.3.9-18.9 1.2-20.3.7-81.9 6.3-107.3 9.8-21.3 2.9-38.5 6.4-54.3 11-23 6.7-30.4 8.8-37.2 10.4-32.2 7.9-87.8 31.1-161.3 67.3-27.5 13.5-34 16.4-34.7 15.2-6.2-11.2-28-37.2-41.4-49.5-19.1-17.5-30.3-25.1-48.3-32.4-22.1-8.9-47.1-12.4-55.3-7.6-4.9 2.9-4.9 5.7.4 28.1 5.5 23.3 16 80.4 19 103.7 1.3 9.8 1.3 9.9-.9 10.7-39.3 14.9-175.9 54.4-273.5 79-45.2 11.4-70.3 16.7-84.5 18-7.1.6-20.8 2-30.2 3.1-21.8 2.4-36.4 2.4-52.3-.1-37.5-5.8-71.4-15.7-93-27.2-23.5-12.5-53.8-36-70.3-54.6-14.8-16.7-32.9-46.8-40-66.4-2.8-7.5-6.5-12.7-12-16.5l-3.8-2.6-22.2.7c-17.2.5-33.9.1-74.2-1.9-60.9-3-64.4-3.3-80.8-7.9-27.6-7.8-41.6-13.4-54.4-21.7-8.1-5.3-10.5-5-11.7 1.1-.8 4.5-.6 5 6.4 18 4 7.4 9.2 16.2 11.5 19.5 4.2 5.9 16.4 18.4 23.5 24.1 1.9 1.6 6.8 5.7 10.8 9.3 4 3.5 9.9 7.8 13.2 9.5 3.6 1.9 11.2 8.1 19.9 16.3 16.9 15.7 57 50 83.1 70.8 56.2 44.9 111.7 80.1 177.5 112.4 47.2 23.3 82.3 37.7 133 54.6 46 15.4 73.5 22 113 26.9 53.8 6.8 134.3 7.2 211 1.1 81-6.4 120.8-9.9 137.5-12.1l4.5-.6 1.2 8.4c2.3 16.4 20.4 70.9 37.5 113 7.9 19.5 10.1 19.5 28.2.8 35.9-37.3 56.1-78.3 68.2-138.7.2-1.3 1.4-2.5 2.7-2.7 1.2-.3 22.2-3.4 46.7-7 24.5-3.6 61.4-9 82-12.1 105.2-15.7 172.1-21.5 251.7-21.9 18.7 0 34.4.2 34.7.5.3.3-1.5 5.3-4 11.2-6.6 15.6-8.8 25.1-8.2 36.2.4 7.9 1.4 11.8 8.1 31.5 9 27 10.7 33 14.6 52.5 6.3 31.2 8.1 57.3 6.2 86.9-1.1 17.2-1.1 18 .7 19.9 3.1 3 9.1 3.3 15.3.6 22.7-10.1 44.6-22.2 58.7-32.5 30.9-22.8 60.2-57.1 81.3-95.4 11.7-21.3 28.7-60 35-79.6l2.2-7.2 5.1-.4c2.8-.2 8.5-.1 12.6.2 4.1.3 7.8.2 8.1-.3.4-.5 4.6-1.3 9.5-1.8s13.9-1.4 19.9-2c17-1.6 43.3-5.7 61.5-9.4 61-12.6 109.7-31.8 172.5-68 57.2-33 90.5-60.3 111-91 14.9-22.3 19.4-34.1 18-46.8-1.9-15.7-15.9-31.6-39.5-44.7-5.2-2.9-10.7-6.1-12.1-7.1-1.5-1-9.4-5.2-17.5-9.2-8.2-4.1-21-10.6-28.4-14.4-7.4-3.9-18.8-9.2-25.2-11.7-20.9-8.3-63.9-22.6-81.3-27.1-9.3-2.4-24.6-6.7-34-9.5-29.4-8.9-46.6-12.9-76.7-18-33.1-5.6-61.4-10.6-86.3-15.1-9.3-1.7-23-3.9-30.3-4.8l-13.3-1.7-6.7-11.4c-22.1-37.5-53.6-77.4-80-101.6-13.3-12.3-36.1-31.3-67.2-56.3-19.5-15.7-55.4-40.8-70-48.9-14-7.8-38-11.7-44.4-7.3z"/></svg>